<svg width="267" height="81" viewBox="0 0 267 81" fill="none" xmlns="http://www.w3.org/2000/svg">
<g clip-path="url(#clip0_20_121)">
<path d="M0 0C88.11 0 176.22 0 267 0C267 26.73 267 53.46 267 81C178.89 81 90.78 81 0 81C0 54.27 0 27.54 0 0Z" fill="#0E121F"/>
<path d="M91 15C97.93 15 104.86 15 112 15C112 17.97 112 20.94 112 24C112.885 27.4147 112.885 27.4147 114 30C114.33 28.35 114.66 26.7 115 25C114.34 25 113.68 25 113 25C113.33 21.7 113.66 18.4 114 15C120.27 15 126.54 15 133 15C132.34 18.3 131.68 21.6 131 25C129.68 25 128.36 25 127 25C126.898 26.0106 126.796 27.0213 126.691 28.0625C125.852 34.7804 124.335 41.3809 122.938 48C122.653 49.3606 122.368 50.7213 122.084 52.082C121.392 55.3886 120.696 58.6944 120 62C115.05 62 110.1 62 105 62C104.01 56.72 103.02 51.44 102 46C101.01 48.475 101.01 48.475 100 51C100.66 51 101.32 51 102 51C101.34 54.63 100.68 58.26 100 62C94.06 62 88.12 62 82 62C82.33 58.7 82.66 55.4 83 52C85.475 51.505 85.475 51.505 88 51C88.1328 50.1454 88.2655 49.2907 88.4023 48.4102C88.5789 47.3054 88.7555 46.2007 88.9375 45.0625C89.1985 43.4093 89.1985 43.4093 89.4648 41.7227C90 39 90 39 91 38C91.3709 36.3832 91.6974 34.756 92 33.125C92.5266 30.3026 93.0901 27.7298 94 25C92.68 25 91.36 25 90 25C90.33 21.7 90.66 18.4 91 15Z" fill="#E22B34"/>
<path d="M41.5566 15.8145C42.2551 15.8146 42.9535 15.8146 43.6731 15.8147C45.7933 15.8125 47.9131 15.7944 50.0332 15.7754C51.3828 15.7725 52.7324 15.7705 54.082 15.7696C55.3116 15.7654 56.5411 15.7613 57.8079 15.7571C60.8393 15.9878 62.5589 16.2188 65 18C66.3562 23.2164 66.109 27.7962 65 33C63.0625 35.5 63.0625 35.5 61 37C60.34 37 59.68 37 59 37C59 37.66 59 38.32 59 39C59.99 39.33 60.98 39.66 62 40C62.6249 50.7279 62.6249 50.7279 60.25 55.5625C57.2976 58.761 55.1392 60.6203 51 62C48.7891 62.0836 46.5757 62.1073 44.3633 62.0977C43.0646 62.0945 41.7658 62.0912 40.4277 62.0879C39.056 62.0796 37.6842 62.0711 36.3125 62.0625C34.929 62.0575 33.5456 62.0529 32.1621 62.0489C28.7747 62.0371 25.3874 62.0206 22 62C22.33 59.36 22.66 56.72 23 54C25.475 53.505 25.475 53.505 28 53C28.0825 51.7213 28.165 50.4425 28.25 49.125C29.0414 40.9515 31.1309 32.9805 33 25C32.01 25 31.02 25 30 25C29.9023 18.8477 29.9023 18.8477 30 17C32.4176 14.5824 38.1807 15.8268 41.5566 15.8145Z" fill="#E42B34"/>
<path d="M156.602 15.8865C158.205 15.8866 159.807 15.8923 161.41 15.9023C162.252 15.9038 163.094 15.9052 163.962 15.9066C166.662 15.9122 169.362 15.9248 172.063 15.9375C173.889 15.9425 175.715 15.9471 177.541 15.9512C182.027 15.9622 186.514 15.9795 191 16C190.256 22.086 189.251 27.9941 188 34C184.04 34.33 180.08 34.66 176 35C174.68 40.61 173.36 46.22 172 52C172.99 52 173.98 52 175 52C174.67 55.3 174.34 58.6 174 62C166.74 62 159.48 62 152 62C152.33 58.7 152.66 55.4 153 52C154.98 51.505 154.98 51.505 157 51C158.32 45.39 159.64 39.78 161 34C157.37 34 153.74 34 150 34C149.745 28.1353 150.508 22.6843 152 17C153 16 153 16 156.602 15.8865Z" fill="#E32B34"/>
<path d="M209 15C215.27 15 221.54 15 228 15C226.125 24.625 226.125 24.625 225 28C225.66 27.67 226.32 27.34 227 27C227.692 24.1902 227.692 24.1902 228.125 20.9375C228.414 18.9781 228.702 17.0187 229 15C235.27 15 241.54 15 248 15C247.67 16.65 247.34 18.3 247 20C246.917 20.8662 246.835 21.7325 246.75 22.625C246 25 246 25 243.809 26.168C239.942 28.6901 237.869 31.8995 235.312 35.6875C234.827 36.3701 234.342 37.0526 233.842 37.7559C230.645 42.426 229.067 46.4401 228 52C228.66 52 229.32 52 230 52C229.34 55.3 228.68 58.6 228 62C221.73 62 215.46 62 209 62C209.33 58.7 209.66 55.4 210 52C211.32 52 212.64 52 214 52C213.262 37.5727 213.262 37.5727 208 25C207.864 21.3366 207.835 18.4938 209 15Z" fill="#E12B34"/>
<path d="M134 19C134.66 19 135.32 19 136 19C136.125 25.625 136.125 25.625 135 29C133.68 29 132.36 29 131 29C130.83 29.923 130.66 30.8459 130.484 31.7969C128.992 39.8522 127.455 47.8988 125.875 55.9375C125.705 56.8195 125.534 57.7016 125.358 58.6104C125.196 59.4286 125.034 60.2468 124.867 61.0898C124.724 61.8207 124.581 62.5515 124.433 63.3044C124 65 124 65 123 66C120.647 66.0727 118.292 66.0837 115.938 66.0625C114.647 66.0535 113.357 66.0445 112.027 66.0352C111.028 66.0236 110.029 66.012 109 66C109 65.01 109 64.02 109 63C109.782 62.9394 110.565 62.8788 111.371 62.8164C112.383 62.7326 113.395 62.6488 114.438 62.5625C115.447 62.4813 116.456 62.4001 117.496 62.3164C119.936 62.2679 119.936 62.2679 121 61C121.481 59.0728 121.907 57.132 122.312 55.1875C122.578 53.9384 122.844 52.6893 123.117 51.4023C123.78 48.1739 124.373 44.9372 124.945 41.6914C125.192 40.3404 125.192 40.3404 125.444 38.9622C125.77 37.1703 126.082 35.3758 126.378 33.5789C126.531 32.7536 126.683 31.9284 126.84 31.0781C126.967 30.3398 127.095 29.6015 127.226 28.8408C128.269 26.361 129.624 26.114 132 25C133.292 21.958 133.292 21.958 134 19Z" fill="#D42933"/>
<path d="M64 44C64.66 44.33 65.32 44.66 66 45C66.3706 51.0531 66.0826 55.5789 63 61C58.4756 65.2982 55.1375 66.1275 49.0195 66.0977C47.8562 66.0944 46.6928 66.0912 45.4941 66.0879C44.2792 66.0795 43.0643 66.0711 41.8125 66.0625C40.586 66.058 39.3594 66.0535 38.0957 66.0488C35.0638 66.037 32.0319 66.0206 29 66C29 65.01 29 64.02 29 63C29.7008 62.9854 30.4017 62.9708 31.1238 62.9558C34.3122 62.8811 37.4997 62.7845 40.6875 62.6875C42.3417 62.6537 42.3417 62.6537 44.0293 62.6191C45.6293 62.566 45.6293 62.566 47.2617 62.5117C48.241 62.4855 49.2203 62.4594 50.2292 62.4324C54.46 61.7722 57.1163 59.8332 60.1875 56.9375C62.7124 52.8454 63.3049 48.7104 64 44Z" fill="#D72933"/>
<path d="M248 20C248.99 20 249.98 20 251 20C250.805 25.7617 250.805 25.7617 250 28C248.575 29.2014 247.144 30.3969 245.671 31.5383C242.591 34.2324 240.458 37.624 238.187 41C237.698 41.6987 237.209 42.3973 236.705 43.1172C234.268 46.69 232.389 49.5767 232 54C229.589 50.3841 229.384 49.2728 230 45C231.634 41.8717 233.658 39.0864 235.75 36.25C236.289 35.483 236.828 34.716 237.383 33.9258C241.463 28.2639 241.463 28.2639 244.11 26.9639C246.368 26.0734 246.368 26.0734 247.25 22.875C247.498 21.9262 247.745 20.9775 248 20Z" fill="#D82A33"/>
<path d="M192 20C192.99 20 193.98 20 195 20C194.526 22.98 194.046 25.9589 193.562 28.9375C193.428 29.7876 193.293 30.6378 193.154 31.5137C193.022 32.3226 192.89 33.1314 192.754 33.9648C192.633 34.7137 192.513 35.4626 192.389 36.2341C192 38 192 38 191 39C187.331 39.1431 183.673 39.0422 180 39C178.515 44.445 178.515 44.445 177 50C176.01 50 175.02 50 174 50C174.309 48.041 174.622 46.0828 174.938 44.125C175.112 43.0345 175.286 41.9439 175.465 40.8203C176 38 176 38 177 36C179.504 35.5859 179.504 35.5859 182.562 35.375C183.574 35.3002 184.586 35.2255 185.629 35.1484C186.411 35.0995 187.194 35.0505 188 35C189.466 31.5814 190.443 28.3418 191.125 24.6875C191.293 23.8045 191.46 22.9215 191.633 22.0117C191.754 21.3479 191.875 20.684 192 20Z" fill="#E22B34"/>
<path d="M190 21C190.66 21.33 191.32 21.66 192 22C191.718 23.9598 191.424 25.9178 191.125 27.875C190.963 28.9655 190.8 30.0561 190.633 31.1797C190 34 190 34 188 36C184.32 36.2763 180.695 36.0859 177 36C176.01 40.62 175.02 45.24 174 50C174.99 50.33 175.98 50.66 177 51C175.35 51.33 173.7 51.66 172 52C173.714 36.2857 173.714 36.2857 176 34C178.02 33.9276 180.042 33.9162 182.062 33.9375C183.72 33.951 183.72 33.951 185.41 33.9648C186.265 33.9764 187.119 33.988 188 34C188.061 33.3129 188.121 32.6259 188.184 31.918C188.267 31.0169 188.351 30.1159 188.438 29.1875C188.519 28.2942 188.6 27.4009 188.684 26.4805C189 24 189 24 190 21Z" fill="#401824"/>
<path d="M176 56C176.99 56 177.98 56 179 56C178.34 59.3 177.68 62.6 177 66C170.07 66 163.14 66 156 66C156 65.01 156 64.02 156 63C161.94 62.67 167.88 62.34 174 62C174.66 60.02 175.32 58.04 176 56Z" fill="#C92831"/>
<path d="M102 58C104 60 104 60 104 66C98.06 66 92.12 66 86 66C86 65.01 86 64.02 86 63C90.95 63 95.9 63 101 63C101.33 61.35 101.66 59.7 102 58Z" fill="#C12731"/>
<path d="M68 23C70 25 70 25 70.3125 28.75C70.2098 32.7833 69.205 35.5699 67 39C66.01 39.66 65.02 40.32 64 41C63.34 39.68 62.68 38.36 62 37C62.9281 35.7625 62.9281 35.7625 63.875 34.5C66.3383 30.8488 67.1132 27.2864 68 23Z" fill="#D62933"/>
<path d="M177 36C178.32 36 179.64 36 181 36C181 36.66 181 37.32 181 38C184.3 38 187.6 38 191 38C191 38.33 191 38.66 191 39C187.37 39 183.74 39 180 39C179.01 42.63 178.02 46.26 177 50C176.01 50 175.02 50 174 50C174.309 48.041 174.622 46.0828 174.938 44.125C175.112 43.0345 175.286 41.9439 175.465 40.8203C176 38 176 38 177 36Z" fill="#C62731"/>
<path d="M231 57C231.33 57 231.66 57 232 57C231.67 59.97 231.34 62.94 231 66C225.06 66 219.12 66 213 66C213 65.34 213 64.68 213 64C220.92 63.505 220.92 63.505 229 63C229.66 61.02 230.32 59.04 231 57Z" fill="#A3232E"/>
<path d="M101 43C103.36 46.5397 103.586 48.9911 104.125 53.1875C104.293 54.4598 104.46 55.7321 104.633 57.043C104.754 58.0188 104.875 58.9946 105 60C104.01 60.33 103.02 60.66 102 61C101.34 61.66 100.68 62.32 100 63C100.142 61.5621 100.289 60.1247 100.438 58.6875C100.519 57.887 100.6 57.0865 100.684 56.2617C101 54 101 54 102 51C101.34 51 100.68 51 100 51C100.33 48.36 100.66 45.72 101 43Z" fill="#2C1522"/>
<path d="M150 34C153.63 34 157.26 34 161 34C160 38 160 38 159 39C157 39.0408 155 39.0425 153 39C153 37.68 153 36.36 153 35C152.01 34.67 151.02 34.34 150 34Z" fill="#3E1724"/>
<path d="M229 54C229.99 54.33 230.98 54.66 232 55C231.01 57.97 230.02 60.94 229 64C224.05 63.67 219.1 63.34 214 63C214 62.67 214 62.34 214 62C218.62 62 223.24 62 228 62C228.33 59.36 228.66 56.72 229 54Z" fill="#271521"/>
<path d="M44 43C45.32 43 46.64 43 48 43C48.3667 48.5 48.3667 48.5 46.625 50.875C45 52 45 52 43 52C43.33 49.03 43.66 46.06 44 43Z" fill="#461824"/>
<path d="M48 26C50.0625 26.4375 50.0625 26.4375 52 27C51.67 28.65 51.34 30.3 51 32C49.68 32.33 48.36 32.66 47 33C46.9575 31.0005 46.9592 28.9996 47 27C47.33 26.67 47.66 26.34 48 26Z" fill="#431824"/>
<path d="M65.9999 21C67.7374 23.6573 68.0083 24.896 67.7499 28.125C66.9999 31 66.9999 31 64.9999 33C64.8571 24.4286 64.8571 24.4286 65.9999 21Z" fill="#441824"/>
<path d="M227 18C227.66 18 228.32 18 229 18C228.67 20.97 228.34 23.94 228 27C227.01 27.33 226.02 27.66 225 28C225.66 24.7 226.32 21.4 227 18Z" fill="#521A25"/>
<path d="M153 36C154.98 36 156.96 36 159 36C159 36.99 159 37.98 159 39C157.02 39 155.04 39 153 39C153 38.01 153 37.02 153 36Z" fill="#BB2630"/>
<path d="M112 24C112.99 24.33 113.98 24.66 115 25C114.67 27.64 114.34 30.28 114 33C112.142 29.865 111.799 27.6253 112 24Z" fill="#2C1522"/>
<path d="M192 20C192.99 20 193.98 20 195 20C194.67 22.31 194.34 24.62 194 27C193.01 27 192.02 27 191 27C191.33 24.69 191.66 22.38 192 20Z" fill="#C92832"/>
</g>
<defs>
<clipPath id="clip0_20_121">
<rect width="267" height="81" fill="white"/>
</clipPath>
</defs>
</svg>
