<?xml version="1.0" encoding="UTF-8"?>
<svg version="1.1" xmlns="http://www.w3.org/2000/svg" width="200" height="200">
<path d="M0 0 C1.72705421 -0.01913956 1.72705421 -0.01913956 3.48899841 -0.03866577 C4.73794388 -0.04089142 5.98688934 -0.04311707 7.27368164 -0.04541016 C8.55110733 -0.05206696 9.82853302 -0.05872375 11.14466858 -0.06558228 C13.85081887 -0.07572428 16.55656762 -0.08126211 19.26269531 -0.08007812 C22.73106283 -0.07987484 26.1986118 -0.10718067 29.66678524 -0.14162254 C32.9732204 -0.16920194 36.27964699 -0.16803978 39.58618164 -0.17041016 C40.83310287 -0.18478119 42.08002411 -0.19915222 43.36473083 -0.21395874 C45.09651329 -0.20472885 45.09651329 -0.20472885 46.86328125 -0.1953125 C47.88095078 -0.19816254 48.8986203 -0.20101257 49.9471283 -0.20394897 C52.49633789 0.29052734 52.49633789 0.29052734 54.32414246 2.06124878 C55.57187945 4.43419211 55.87555724 5.78792895 55.88452148 8.44482422 C55.89397797 9.25246216 55.90343445 10.0601001 55.91317749 10.89221191 C55.9071048 11.75584351 55.9010321 12.6194751 55.89477539 13.50927734 C55.89764557 14.4041687 55.90051575 15.29906006 55.9034729 16.22106934 C55.90551179 18.11060215 55.89999418 20.00015615 55.88745117 21.88964844 C55.87139489 24.7802657 55.88730565 27.66948477 55.90649414 30.56005859 C55.90451168 32.39730126 55.90066794 34.23454306 55.89477539 36.07177734 C55.90388443 37.36722473 55.90388443 37.36722473 55.91317749 38.68884277 C55.90372101 39.49648071 55.89426453 40.30411865 55.88452148 41.13623047 C55.8821347 41.8436438 55.87974792 42.55105713 55.87728882 43.27990723 C55.35605279 46.0309378 54.50787178 47.34181453 52.49633789 49.29052734 C49.9471283 49.78500366 49.9471283 49.78500366 46.86328125 49.77636719 C45.70875961 49.78252045 44.55423798 49.78867371 43.36473083 49.79501343 C42.1178096 49.7806424 40.87088837 49.76627136 39.58618164 49.75146484 C38.30779922 49.7505484 37.02941681 49.74963196 35.71229553 49.74868774 C33.00752735 49.7426402 30.30411953 49.7290065 27.59960938 49.70214844 C24.13024364 49.66813405 20.66145994 49.66052083 17.19194698 49.6620388 C13.88580079 49.66136485 10.57977707 49.64369325 7.27368164 49.62646484 C5.40026344 49.62312637 5.40026344 49.62312637 3.48899841 49.61972046 C2.33762894 49.60696075 1.18625946 49.59420105 0 49.58105469 C-1.01687393 49.57343109 -2.03374786 49.5658075 -3.08143616 49.55795288 C-5.50366211 49.29052734 -5.50366211 49.29052734 -7.50366211 47.29052734 C-7.75762939 45.35510254 -7.75762939 45.35510254 -7.76245117 42.96435547 C-7.76875549 42.07002808 -7.77505981 41.17570068 -7.78155518 40.25427246 C-7.77750671 39.28654907 -7.77345825 38.31882568 -7.76928711 37.32177734 C-7.77120056 36.33052856 -7.77311401 35.33927979 -7.77508545 34.31799316 C-7.77644796 32.21980536 -7.77274693 30.12160916 -7.7644043 28.0234375 C-7.75370582 24.80368189 -7.76429747 21.58448426 -7.77709961 18.36474609 C-7.77577803 16.32958861 -7.77321566 14.29443147 -7.76928711 12.25927734 C-7.7753598 10.80769226 -7.7753598 10.80769226 -7.78155518 9.32678223 C-7.77525085 8.43245483 -7.76894653 7.53812744 -7.76245117 6.61669922 C-7.76085999 5.82775269 -7.7592688 5.03880615 -7.75762939 4.22595215 C-7.15112588 -0.39606816 -3.84235739 0.0288065 0 0 Z " fill="#B08CE1" transform="translate(76.503662109375,43.70947265625)"/>
<path d="M0 0 C1.72705421 -0.01913956 1.72705421 -0.01913956 3.48899841 -0.03866577 C4.73794388 -0.04089142 5.98688934 -0.04311707 7.27368164 -0.04541016 C8.55110733 -0.05206696 9.82853302 -0.05872375 11.14466858 -0.06558228 C13.85081887 -0.07572428 16.55656762 -0.08126211 19.26269531 -0.08007812 C22.73106283 -0.07987484 26.1986118 -0.10718067 29.66678524 -0.14162254 C32.9732204 -0.16920194 36.27964699 -0.16803978 39.58618164 -0.17041016 C40.83310287 -0.18478119 42.08002411 -0.19915222 43.36473083 -0.21395874 C45.09651329 -0.20472885 45.09651329 -0.20472885 46.86328125 -0.1953125 C47.88095078 -0.19816254 48.8986203 -0.20101257 49.9471283 -0.20394897 C52.49633789 0.29052734 52.49633789 0.29052734 54.32414246 2.06124878 C55.57187945 4.43419211 55.87555724 5.78792895 55.88452148 8.44482422 C55.89397797 9.25246216 55.90343445 10.0601001 55.91317749 10.89221191 C55.9071048 11.75584351 55.9010321 12.6194751 55.89477539 13.50927734 C55.89764557 14.4041687 55.90051575 15.29906006 55.9034729 16.22106934 C55.90551179 18.11060215 55.89999418 20.00015615 55.88745117 21.88964844 C55.87139489 24.7802657 55.88730565 27.66948477 55.90649414 30.56005859 C55.90451168 32.39730126 55.90066794 34.23454306 55.89477539 36.07177734 C55.90388443 37.36722473 55.90388443 37.36722473 55.91317749 38.68884277 C55.90372101 39.49648071 55.89426453 40.30411865 55.88452148 41.13623047 C55.8821347 41.8436438 55.87974792 42.55105713 55.87728882 43.27990723 C55.35605279 46.0309378 54.50787178 47.34181453 52.49633789 49.29052734 C49.9471283 49.78500366 49.9471283 49.78500366 46.86328125 49.77636719 C45.70875961 49.78252045 44.55423798 49.78867371 43.36473083 49.79501343 C42.1178096 49.7806424 40.87088837 49.76627136 39.58618164 49.75146484 C38.30779922 49.7505484 37.02941681 49.74963196 35.71229553 49.74868774 C33.00752735 49.7426402 30.30411953 49.7290065 27.59960938 49.70214844 C24.13024364 49.66813405 20.66145994 49.66052083 17.19194698 49.6620388 C13.88580079 49.66136485 10.57977707 49.64369325 7.27368164 49.62646484 C5.40026344 49.62312637 5.40026344 49.62312637 3.48899841 49.61972046 C2.33762894 49.60696075 1.18625946 49.59420105 0 49.58105469 C-1.01687393 49.57343109 -2.03374786 49.5658075 -3.08143616 49.55795288 C-5.50366211 49.29052734 -5.50366211 49.29052734 -7.50366211 47.29052734 C-7.75762939 45.35510254 -7.75762939 45.35510254 -7.76245117 42.96435547 C-7.76875549 42.07002808 -7.77505981 41.17570068 -7.78155518 40.25427246 C-7.77750671 39.28654907 -7.77345825 38.31882568 -7.76928711 37.32177734 C-7.77120056 36.33052856 -7.77311401 35.33927979 -7.77508545 34.31799316 C-7.77644796 32.21980536 -7.77274693 30.12160916 -7.7644043 28.0234375 C-7.75370582 24.80368189 -7.76429747 21.58448426 -7.77709961 18.36474609 C-7.77577803 16.32958861 -7.77321566 14.29443147 -7.76928711 12.25927734 C-7.7753598 10.80769226 -7.7753598 10.80769226 -7.78155518 9.32678223 C-7.77525085 8.43245483 -7.76894653 7.53812744 -7.76245117 6.61669922 C-7.76085999 5.82775269 -7.7592688 5.03880615 -7.75762939 4.22595215 C-7.15112588 -0.39606816 -3.84235739 0.0288065 0 0 Z M-2.50366211 6.29052734 C-2.50366211 18.50052734 -2.50366211 30.71052734 -2.50366211 43.29052734 C14.65633789 43.29052734 31.81633789 43.29052734 49.49633789 43.29052734 C49.49633789 31.08052734 49.49633789 18.87052734 49.49633789 6.29052734 C32.33633789 6.29052734 15.17633789 6.29052734 -2.50366211 6.29052734 Z " fill="#EEEDF0" transform="translate(76.503662109375,43.70947265625)"/>
<path d="M0 0 C1.77213867 -0.01418472 1.77213867 -0.01418472 3.58007812 -0.02865601 C5.4740332 -0.01954697 5.4740332 -0.01954697 7.40625 -0.01025391 C8.71529297 -0.01312408 10.02433594 -0.01599426 11.37304688 -0.01895142 C14.13682744 -0.02336081 16.90031603 -0.01698892 19.6640625 -0.00292969 C23.19469446 0.01416189 26.72464213 0.00431319 30.25524902 -0.01364708 C33.63896988 -0.02713591 37.02250974 -0.01767302 40.40625 -0.01025391 C41.66888672 -0.0163266 42.93152344 -0.02239929 44.23242188 -0.02865601 C45.41384766 -0.01919952 46.59527344 -0.00974304 47.8125 0 C48.84697266 0.00238678 49.88144531 0.00477356 50.94726562 0.00723267 C55.69226113 0.61812148 58.94508047 2.37505895 62.21875 5.82568359 C64.8137878 9.76629655 65.03010812 12.97496638 64.96875 17.63818359 C64.95972656 18.53021484 64.95070313 19.42224609 64.94140625 20.34130859 C64.92980469 21.01677734 64.91820312 21.69224609 64.90625 22.38818359 C66.55625 22.71818359 68.20625 23.04818359 69.90625 23.38818359 C69.93512512 27.03400046 69.95300585 30.67978823 69.96875 34.32568359 C69.97712891 35.36660156 69.98550781 36.40751953 69.99414062 37.47998047 C69.99736328 38.46933594 70.00058594 39.45869141 70.00390625 40.47802734 C70.00914307 41.39447021 70.01437988 42.31091309 70.01977539 43.25512695 C69.90625 45.38818359 69.90625 45.38818359 68.90625 46.38818359 C67.24195949 46.48642296 65.57343069 46.5179199 63.90625 46.51318359 C62.545 46.51705078 62.545 46.51705078 61.15625 46.52099609 C58.90625 46.38818359 58.90625 46.38818359 57.90625 45.38818359 C57.81924658 43.75345478 57.79923937 42.11504304 57.80859375 40.47802734 C57.81342773 38.99399414 57.81342773 38.99399414 57.81835938 37.47998047 C57.83092773 35.91860352 57.83092773 35.91860352 57.84375 34.32568359 C57.84826172 33.28089844 57.85277344 32.23611328 57.85742188 31.15966797 C57.86925087 28.569117 57.88573311 25.97867801 57.90625 23.38818359 C58.89625 23.05818359 59.88625 22.72818359 60.90625 22.38818359 C60.84601506 20.30405453 60.75716679 18.22073924 60.65625 16.13818359 C60.60984375 14.97802734 60.5634375 13.81787109 60.515625 12.62255859 C59.80882419 8.87107737 58.8986403 7.68162141 55.90625 5.38818359 C52.78996382 4.34942153 50.59035923 4.24918452 47.32080078 4.22705078 C46.17596222 4.21744324 45.03112366 4.20783569 43.85159302 4.19793701 C41.99532791 4.19156219 41.99532791 4.19156219 40.1015625 4.18505859 C38.8302951 4.17935852 37.55902771 4.17365845 36.24923706 4.16778564 C33.55756042 4.15833226 30.86599537 4.15143704 28.17431641 4.14794922 C24.73212201 4.1424664 21.29032355 4.1184386 17.84825325 4.08997726 C14.55771977 4.06682897 11.26716601 4.0648999 7.9765625 4.06005859 C6.74310089 4.04771179 5.50963928 4.03536499 4.23880005 4.02264404 C2.51208572 4.02714569 2.51208572 4.02714569 0.75048828 4.03173828 C-0.76482986 4.02626984 -0.76482986 4.02626984 -2.3107605 4.02069092 C-5.5957839 4.45447697 -7.43823398 5.43130638 -10.09375 7.38818359 C-12.36329631 10.79250307 -12.45924949 12.55342561 -12.71875 16.57568359 C-12.79351562 17.66236328 -12.86828125 18.74904297 -12.9453125 19.86865234 C-12.99429688 20.70009766 -13.04328125 21.53154297 -13.09375 22.38818359 C-12.10375 22.71818359 -11.11375 23.04818359 -10.09375 23.38818359 C-10.06487488 27.03400046 -10.04699415 30.67978823 -10.03125 34.32568359 C-10.02287109 35.36660156 -10.01449219 36.40751953 -10.00585938 37.47998047 C-10.00263672 38.46933594 -9.99941406 39.45869141 -9.99609375 40.47802734 C-9.99085693 41.39447021 -9.98562012 42.31091309 -9.98022461 43.25512695 C-10.09375 45.38818359 -10.09375 45.38818359 -11.09375 46.38818359 C-12.75804051 46.48642296 -14.42656931 46.5179199 -16.09375 46.51318359 C-17.455 46.51705078 -17.455 46.51705078 -18.84375 46.52099609 C-21.09375 46.38818359 -21.09375 46.38818359 -22.09375 45.38818359 C-22.1929157 43.76560815 -22.22454777 42.13878528 -22.2265625 40.51318359 C-22.22785156 39.52833984 -22.22914062 38.54349609 -22.23046875 37.52880859 C-22.22660156 36.49240234 -22.22273438 35.45599609 -22.21875 34.38818359 C-22.22455078 32.83357422 -22.22455078 32.83357422 -22.23046875 31.24755859 C-22.22917969 30.26271484 -22.22789063 29.27787109 -22.2265625 28.26318359 C-22.22543457 27.35310547 -22.22430664 26.44302734 -22.22314453 25.50537109 C-22.09375 23.38818359 -22.09375 23.38818359 -21.09375 22.38818359 C-19.42757885 22.34754527 -17.75986905 22.34546259 -16.09375 22.38818359 C-16.14015625 21.51935547 -16.1865625 20.65052734 -16.234375 19.75537109 C-16.52868646 10.35842648 -16.52868646 10.35842648 -14.46875 5.76318359 C-10.17287895 1.46731255 -6.00669277 0.0138589 0 0 Z " fill="#A481D4" transform="translate(76.09375,34.61181640625)"/>
<path d="M0 0 C30.36 0 60.72 0 92 0 C90 5 90 5 87 7 C84.36948895 7.20963208 81.84329896 7.30405818 79.21142578 7.30639648 C78.02312668 7.31888176 78.02312668 7.31888176 76.81082153 7.33161926 C74.18893536 7.35573752 71.56729788 7.36449352 68.9453125 7.37109375 C67.12311731 7.38005868 65.3009229 7.3891805 63.47872925 7.39845276 C59.65718801 7.41495025 55.83573446 7.42264425 52.01416016 7.42553711 C47.11896667 7.4309218 42.22459804 7.46860184 37.32963753 7.51428127 C33.5652262 7.54403456 29.80101391 7.55126029 26.03649521 7.55226326 C24.2319651 7.556469 22.42743458 7.56891752 20.62302017 7.58978081 C18.09718561 7.61666035 15.57326819 7.61188111 13.04736328 7.59936523 C11.93125671 7.62161667 11.93125671 7.62161667 10.79260254 7.64431763 C6.81197709 7.58819418 5.14280235 7.1147218 1.99703979 4.58753967 C0 2 0 2 0 0 Z " fill="#A682D6" transform="translate(54,96)"/>
<path d="M0 0 C2.64 0 5.28 0 8 0 C9.93393388 5.01064686 11.51401513 9.79905294 13 15 C14.65 10.05 16.3 5.1 18 0 C20.64 0 23.28 0 26 0 C26 10.23 26 20.46 26 31 C24.02 31 22.04 31 20 31 C19.67 25.72 19.34 20.44 19 15 C18.01 18.63 17.02 22.26 16 26 C14.35 26.33 12.7 26.66 11 27 C9.68 23.04 8.36 19.08 7 15 C6.67 20.28 6.34 25.56 6 31 C4.02 31 2.04 31 0 31 C0 20.77 0 10.54 0 0 Z " fill="#E3E1E6" transform="translate(38,115)"/>
<path d="M0 0 C1.98 0 3.96 0 6 0 C8.31 4.95 10.62 9.9 13 15 C13 10.05 13 5.1 13 0 C14.98 0 16.96 0 19 0 C19 10.23 19 20.46 19 31 C17.35 31 15.7 31 14 31 C11.69 26.38 9.38 21.76 7 17 C6.67 21.62 6.34 26.24 6 31 C4.02 31 2.04 31 0 31 C0 20.77 0 10.54 0 0 Z " fill="#E5E3E7" transform="translate(82,115)"/>
<path d="M0 0 C2.625 1.6875 2.625 1.6875 4 4 C4.3125 6.6875 4.3125 6.6875 4 9 C3 10 3 10 0.4375 10.0625 C-0.366875 10.041875 -1.17125 10.02125 -2 10 C-2.33 8.35 -2.66 6.7 -3 5 C-4.32 5 -5.64 5 -7 5 C-7 11.93 -7 18.86 -7 26 C-5.68 26 -4.36 26 -3 26 C-2.67 23.69 -2.34 21.38 -2 19 C-2.99 18.67 -3.98 18.34 -5 18 C-5 17.01 -5 16.02 -5 15 C-1.7 15 1.6 15 5 15 C5 19.95 5 24.9 5 30 C0 31 0 31 -3 31 C-4.423125 31.12375 -4.423125 31.12375 -5.875 31.25 C-9.79676801 30.93625856 -11.25175923 29.74824077 -14 27 C-15.26261005 23.21216985 -15.22317056 19.63478174 -15.25 15.6875 C-15.270625 14.94048828 -15.29125 14.19347656 -15.3125 13.42382812 C-15.34676277 8.54566663 -14.69991459 5.22680804 -12 1 C-8.30253526 -0.84873237 -4.03625644 -0.46872655 0 0 Z " fill="#E1DFE3" transform="translate(121,115)"/>
<path d="M0 0 C4.95 0 9.9 0 15 0 C15 1.32 15 2.64 15 4 C12.36 4 9.72 4 7 4 C7 6.64 7 9.28 7 12 C8.98 12 10.96 12 13 12 C13 13.65 13 15.3 13 17 C11.02 17 9.04 17 7 17 C7 20.3 7 23.6 7 27 C9.64 27 12.28 27 15 27 C15 28.32 15 29.64 15 31 C12.68756208 31.02685412 10.3750373 31.04632841 8.0625 31.0625 C6.77472656 31.07410156 5.48695313 31.08570313 4.16015625 31.09765625 C1 31 1 31 0 30 C-0.08783542 27.78144736 -0.10694609 25.56011504 -0.09765625 23.33984375 C-0.0962413 22.67537735 -0.09482635 22.01091095 -0.09336853 21.3263092 C-0.08775518 19.19666101 -0.07520054 17.06711661 -0.0625 14.9375 C-0.05748671 13.49674631 -0.05292351 12.05599097 -0.04882812 10.61523438 C-0.03863076 7.07675042 -0.0190583 3.53849187 0 0 Z " fill="#D9D6DC" transform="translate(147,115)"/>
<path d="M0 0 C3.96 0 7.92 0 12 0 C12.02682987 3.64588169 12.04675569 7.29156846 12.0625 10.9375 C12.07087891 11.97841797 12.07925781 13.01933594 12.08789062 14.09179688 C12.09111328 15.08115234 12.09433594 16.07050781 12.09765625 17.08984375 C12.10289307 18.00628662 12.10812988 18.92272949 12.11352539 19.86694336 C12 22 12 22 11 23 C9.33570949 23.09823937 7.66718069 23.12973631 6 23.125 C4.63875 23.12886719 4.63875 23.12886719 3.25 23.1328125 C1 23 1 23 0 22 C-0.08700342 20.36527118 -0.10701063 18.72685945 -0.09765625 17.08984375 C-0.09443359 16.10048828 -0.09121094 15.11113281 -0.08789062 14.09179688 C-0.07951172 13.05087891 -0.07113281 12.00996094 -0.0625 10.9375 C-0.05798828 9.89271484 -0.05347656 8.84792969 -0.04882812 7.77148438 C-0.03699927 5.18096546 -0.01906319 2.59047578 0 0 Z " fill="#E5E4E8" transform="translate(134,58)"/>
<path d="M0 0 C3.96 0 7.92 0 12 0 C12.02682987 3.64588169 12.04675569 7.29156846 12.0625 10.9375 C12.07087891 11.97841797 12.07925781 13.01933594 12.08789062 14.09179688 C12.09111328 15.08115234 12.09433594 16.07050781 12.09765625 17.08984375 C12.10289307 18.00628662 12.10812988 18.92272949 12.11352539 19.86694336 C12 22 12 22 11 23 C9.33570949 23.09823937 7.66718069 23.12973631 6 23.125 C4.63875 23.12886719 4.63875 23.12886719 3.25 23.1328125 C1 23 1 23 0 22 C-0.08700342 20.36527118 -0.10701063 18.72685945 -0.09765625 17.08984375 C-0.09443359 16.10048828 -0.09121094 15.11113281 -0.08789062 14.09179688 C-0.07951172 13.05087891 -0.07113281 12.00996094 -0.0625 10.9375 C-0.05798828 9.89271484 -0.05347656 8.84792969 -0.04882812 7.77148438 C-0.03699927 5.18096546 -0.01906319 2.59047578 0 0 Z " fill="#E5E4E8" transform="translate(54,58)"/>
<path d="M0 0 C2.31 0 4.62 0 7 0 C7 8.91 7 17.82 7 27 C9.31 27 11.62 27 14 27 C14 28.32 14 29.64 14 31 C9.38 31 4.76 31 0 31 C0 20.77 0 10.54 0 0 Z " fill="#DBD9DF" transform="translate(130,115)"/>
<path d="M0 0 C1.98 0 3.96 0 6 0 C6 10.23 6 20.46 6 31 C4.02 31 2.04 31 0 31 C0 20.77 0 10.54 0 0 Z " fill="#F2F1F3" transform="translate(70,115)"/>
<path d="M0 0 C4.3722389 4.62208112 5.14417058 8.04303595 5.0625 14.25 C5.05347656 15.14203125 5.04445312 16.0340625 5.03515625 16.953125 C5.02355469 17.62859375 5.01195312 18.3040625 5 19 C6.32 19.33 7.64 19.66 9 20 C5.7 20 2.4 20 -1 20 C-0.34 19.67 0.32 19.34 1 19 C0.93976506 16.91587093 0.85091679 14.83255565 0.75 12.75 C0.70359375 11.58984375 0.6571875 10.4296875 0.609375 9.234375 C-0.10032828 5.46748835 -1.04544918 4.35070101 -4 2 C-4.99 1.34 -5.98 0.68 -7 0 C-3.80484947 -1.06505018 -3.00991004 -1.27693153 0 0 Z " fill="#896CB0" transform="translate(136,38)"/>
<path d="M0 0 C1.32 0.66 2.64 1.32 4 2 C3.21625 2.598125 2.4325 3.19625 1.625 3.8125 C-1.43475909 6.36229924 -2.84879907 7.93446137 -3.4140625 11.91796875 C-3.48367187 12.99691406 -3.55328125 14.07585938 -3.625 15.1875 C-3.69976562 16.27417969 -3.77453125 17.36085938 -3.8515625 18.48046875 C-3.90054688 19.31191406 -3.94953125 20.14335938 -4 21 C-3.34 21.33 -2.68 21.66 -2 22 C-5.3 22 -8.6 22 -12 22 C-12 21.67 -12 21.34 -12 21 C-10.35 21 -8.7 21 -7 21 C-7.04640625 20.13117187 -7.0928125 19.26234375 -7.140625 18.3671875 C-7.4722547 7.77872482 -7.4722547 7.77872482 -5.1875 4.3125 C-3 2 -3 2 0 0 Z " fill="#9677BF" transform="translate(67,36)"/>
<path d="M0 0 C1.65 0.33 3.3 0.66 5 1 C5 4.63 5 8.26 5 12 C3.35 12.33 1.7 12.66 0 13 C-1 12 -1 12 -1.1328125 9.53125 C-1.13023438 8.5309375 -1.12765625 7.530625 -1.125 6.5 C-1.12757812 5.4996875 -1.13015625 4.499375 -1.1328125 3.46875 C-1 1 -1 1 0 0 Z " fill="#403152" transform="translate(84,59)"/>
<path d="M0 0 C1.32 0.33 2.64 0.66 4 1 C4 4.63 4 8.26 4 12 C2.35 12.33 0.7 12.66 -1 13 C-2.66561399 11.33438601 -2.17115945 9.34037295 -2.1875 7.0625 C-2.20167969 6.16660156 -2.21585937 5.27070312 -2.23046875 4.34765625 C-2 2 -2 2 0 0 Z " fill="#413254" transform="translate(113,59)"/>
<path d="M0 0 C0.66 0 1.32 0 2 0 C2.33 1.32 2.66 2.64 3 4 C5.97 4 8.94 4 12 4 C12.33 2.68 12.66 1.36 13 0 C13.66 0 14.32 0 15 0 C14.61502006 2.23288365 14.10506663 3.83656302 12.875 5.75 C9.86480161 7.75679893 7.51317877 7.43144301 4 7 C1.5625 5.1875 1.5625 5.1875 0 3 C0 2.01 0 1.02 0 0 Z " fill="#4A395F" transform="translate(93,72)"/>
<path d="M0 0 C0.99 0.33 1.98 0.66 3 1 C3 4.3 3 7.6 3 11 C4.32 11.33 5.64 11.66 7 12 C4.69 12 2.38 12 0 12 C0 8.04 0 4.08 0 0 Z " fill="#9175B8" transform="translate(138,46)"/>
<path d="M0 0 C0.66 0 1.32 0 2 0 C1.43628586 3.26954202 0.50037734 4.82575883 -2 7 C-2.99 6.67 -3.98 6.34 -5 6 C-4.360625 5.7525 -3.72125 5.505 -3.0625 5.25 C-0.81258459 4.18437567 -0.81258459 4.18437567 -0.25 1.875 C-0.1675 1.25625 -0.085 0.6375 0 0 Z " fill="#443457" transform="translate(106,72)"/>
</svg>
