<?xml version="1.0" standalone="no"?>
<!DOCTYPE svg PUBLIC "-//W3C//DTD SVG 20010904//EN"
 "http://www.w3.org/TR/2001/REC-SVG-20010904/DTD/svg10.dtd">
<svg version="1.0" xmlns="http://www.w3.org/2000/svg"
 width="154.000000pt" height="156.000000pt" viewBox="0 0 154.000000 156.000000"
 preserveAspectRatio="xMidYMid meet">

<g transform="translate(0.000000,156.000000) scale(0.100000,-0.100000)"
fill="#000000" stroke="none">
<path d="M674 1432 c-27 -18 -33 -47 -14 -72 22 -29 37 -22 19 8 -10 16 -10
26 -1 46 13 28 12 29 -4 18z"/>
<path d="M706 1416 c-15 -24 -15 -26 10 -53 l26 -28 -16 28 c-13 21 -14 32 -5
48 16 30 5 34 -15 5z"/>
<path d="M802 1420 c10 -15 10 -27 1 -52 l-12 -33 20 24 c11 13 17 31 14 38
-3 8 -5 18 -5 23 0 4 -7 10 -15 14 -12 4 -13 2 -3 -14z"/>
<path d="M850 1415 c8 -22 7 -33 -5 -51 -19 -29 -5 -32 19 -5 19 21 15 51 -10
72 -13 10 -13 8 -4 -16z"/>
<path d="M602 1418 c-26 -32 -9 -88 26 -88 12 0 11 5 -2 25 -12 18 -13 30 -6
50 10 26 0 34 -18 13z"/>
<path d="M908 1399 c3 -19 -2 -37 -13 -49 -15 -17 -16 -20 -3 -20 25 0 51 37
44 63 -9 38 -33 42 -28 6z"/>
<path d="M526 1394 c-34 -33 -13 -84 33 -84 l24 0 -22 24 c-17 18 -22 32 -17
50 7 30 4 32 -18 10z"/>
<path d="M981 1383 c2 -20 -3 -39 -15 -52 -19 -21 -19 -21 0 -21 50 1 70 52
33 86 -21 19 -21 19 -18 -13z"/>
<path d="M455 1364 c-34 -34 7 -104 51 -87 20 8 17 21 -7 28 -17 6 -20 13 -17
41 4 38 -2 42 -27 18z"/>
<path d="M1045 1353 c5 -21 1 -31 -17 -45 -19 -15 -21 -19 -9 -27 16 -10 71
12 71 29 0 22 -20 58 -35 64 -14 5 -16 2 -10 -21z"/>
<path d="M387 1322 c-10 -10 -17 -30 -17 -44 0 -21 6 -28 30 -33 16 -4 39 -4
50 0 17 5 19 10 9 21 -6 8 -18 14 -25 14 -13 0 -18 15 -17 48 1 17 -11 15 -30
-6z"/>
<path d="M1110 1316 c0 -18 -8 -30 -25 -38 -14 -6 -25 -15 -25 -19 0 -15 45
-20 74 -10 22 9 27 16 24 37 -2 15 -13 33 -25 42 -22 14 -23 13 -23 -12z"/>
<path d="M323 1272 c-17 -13 -21 -23 -16 -42 3 -14 11 -28 17 -32 19 -13 63
-9 76 7 14 17 15 17 -22 32 -14 7 -28 21 -30 32 -3 19 -4 19 -25 3z"/>
<path d="M760 1270 c0 -15 6 -20 28 -19 16 1 20 3 10 6 -10 2 -18 11 -18 19 0
8 -4 14 -10 14 -5 0 -10 -9 -10 -20z"/>
<path d="M837 1271 c-2 -10 -1 -24 3 -31 6 -10 19 17 20 43 0 15 -18 6 -23
-12z"/>
<path d="M1175 1268 c-4 -15 -18 -29 -38 -36 -30 -11 -30 -12 -12 -27 24 -18
67 -19 83 -3 18 18 14 53 -8 73 -18 17 -19 16 -25 -7z"/>
<path d="M650 1268 c0 -7 5 -20 10 -28 8 -12 10 -11 10 7 0 12 -4 25 -10 28
-5 3 -10 0 -10 -7z"/>
<path d="M691 1263 c-1 -24 14 -29 39 -13 12 8 11 10 -7 10 -12 0 -24 6 -26
13 -3 6 -6 2 -6 -10z"/>
<path d="M886 1272 c-12 -11 -5 -40 10 -46 21 -8 34 1 34 23 0 18 -33 35 -44
23z"/>
<path d="M597 1263 c-4 -3 -7 -15 -7 -26 0 -15 3 -17 13 -8 8 6 17 8 20 4 4
-3 7 -2 7 4 0 14 -25 34 -33 26z"/>
<path d="M990 1256 c0 -2 7 -7 16 -10 8 -3 12 -2 9 4 -6 10 -25 14 -25 6z"/>
<path d="M261 1206 c-7 -12 -11 -34 -9 -47 4 -32 60 -39 90 -12 19 17 19 18
-14 29 -22 7 -34 18 -36 32 -4 28 -16 28 -31 -2z"/>
<path d="M992 1219 c11 -6 15 -16 11 -27 -5 -13 -3 -15 7 -5 17 15 6 43 -17
43 -17 -1 -17 -1 -1 -11z"/>
<path d="M1050 1226 c0 -2 8 -10 18 -17 15 -13 16 -12 3 4 -13 16 -21 21 -21
13z"/>
<path d="M1235 1207 c-5 -18 -16 -28 -36 -32 -25 -6 -27 -9 -16 -26 8 -13 23
-19 49 -19 33 0 37 3 43 31 6 24 2 36 -13 52 l-21 20 -6 -26z"/>
<path d="M490 1214 c0 -5 7 -19 15 -30 8 -10 15 -14 15 -8 0 5 -7 19 -15 30
-8 10 -15 14 -15 8z"/>
<path d="M429 1193 c-13 -16 -12 -17 4 -4 9 7 17 15 17 17 0 8 -8 3 -21 -13z"/>
<path d="M1133 1155 c48 -51 59 -72 33 -62 -22 9 -42 -19 -26 -37 16 -20 40
-9 40 18 0 20 1 20 21 -4 l21 -25 -18 32 c-10 18 -41 54 -69 80 l-50 48 48
-50z"/>
<path d="M728 1142 c-15 -26 -39 -67 -54 -91 -24 -38 -25 -43 -8 -36 10 4 30
10 44 12 14 3 32 15 41 26 16 20 17 20 23 1 4 -13 21 -23 51 -30 25 -6 45 -9
45 -7 0 9 -102 173 -108 173 -4 0 -19 -21 -34 -48z"/>
<path d="M390 1165 c-7 -9 -8 -15 -2 -15 5 0 12 7 16 15 3 8 4 15 2 15 -2 0
-9 -7 -16 -15z"/>
<path d="M460 1170 c-8 -5 -11 -12 -7 -16 4 -4 15 0 24 9 18 18 8 23 -17 7z"/>
<path d="M1040 1165 c7 -8 19 -15 26 -15 8 0 11 6 8 15 -4 8 -15 15 -26 15
-17 0 -18 -3 -8 -15z"/>
<path d="M208 1139 c-33 -51 -23 -99 20 -99 33 0 45 8 60 37 11 19 9 22 -16
28 -19 4 -32 15 -38 32 l-9 27 -17 -25z"/>
<path d="M1295 1141 c-7 -23 -50 -46 -66 -35 -18 11 -8 -14 16 -40 55 -59 121
-4 78 64 -20 31 -21 32 -28 11z"/>
<path d="M403 1139 c-16 -16 -5 -39 19 -39 14 0 19 6 16 22 -4 25 -19 33 -35
17z"/>
<path d="M1083 1134 c-8 -22 18 -37 36 -20 7 8 10 19 7 25 -10 16 -36 13 -43
-5z"/>
<path d="M344 1108 l-19 -23 23 19 c21 18 27 26 19 26 -2 0 -12 -10 -23 -22z"/>
<path d="M442 1086 c-22 -24 -45 -54 -51 -67 -11 -24 -11 -24 6 1 10 14 35 44
57 68 21 23 36 42 34 42 -3 0 -24 -20 -46 -44z"/>
<path d="M353 1074 c-3 -8 -1 -20 6 -27 14 -14 47 15 37 32 -10 16 -36 13 -43
-5z"/>
<path d="M310 1060 c-6 -11 -8 -20 -6 -20 3 0 10 9 16 20 6 11 8 20 6 20 -3 0
-10 -9 -16 -20z"/>
<path d="M1105 1050 c10 -11 20 -20 23 -20 3 0 -3 9 -13 20 -10 11 -20 20 -23
20 -3 0 3 -9 13 -20z"/>
<path d="M157 1046 c-10 -26 -8 -58 6 -83 12 -22 13 -22 46 -5 19 9 38 28 43
41 8 22 6 23 -21 18 -24 -5 -33 -1 -49 20 -16 22 -20 24 -25 9z"/>
<path d="M1342 1035 c-11 -23 -16 -26 -42 -20 -17 4 -30 4 -30 1 0 -21 26 -54
50 -63 26 -10 31 -8 45 13 18 29 19 54 2 78 -12 16 -14 16 -25 -9z"/>
<path d="M1231 1020 c14 -31 19 -36 19 -24 0 6 -7 19 -16 30 -14 18 -14 18 -3
-6z"/>
<path d="M334 1015 c11 -8 22 -12 25 -9 6 6 -19 24 -34 24 -5 -1 -1 -7 9 -15z"/>
<path d="M1180 1015 c-14 -16 -10 -18 14 -9 9 3 16 10 16 15 0 14 -16 11 -30
-6z"/>
<path d="M276 995 c-9 -26 -7 -32 5 -12 6 10 9 21 6 23 -2 3 -7 -2 -11 -11z"/>
<path d="M1152 976 c9 -21 10 -30 2 -33 -6 -2 -20 -10 -30 -18 -18 -14 -18
-14 4 -15 18 0 22 -6 22 -31 0 -19 4 -28 11 -23 6 3 9 15 6 25 -3 11 -1 16 5
13 5 -4 8 -19 6 -35 -4 -24 -2 -27 14 -18 13 7 15 14 9 27 -5 9 -15 36 -22 60
-7 24 -19 51 -26 60 -11 14 -11 12 -1 -12z"/>
<path d="M629 977 c-19 -7 -41 -36 -73 -93 -25 -45 -46 -84 -46 -87 0 -3 25
-8 55 -12 49 -6 122 -36 180 -74 18 -12 26 -10 65 17 48 32 136 62 183 62 16
0 27 3 25 8 -2 4 -23 42 -47 86 -48 85 -77 106 -146 106 -33 0 -35 -2 -35 -35
0 -31 -3 -35 -25 -35 -22 0 -25 4 -25 35 0 35 0 35 -42 34 -24 -1 -55 -6 -69
-12z"/>
<path d="M1203 983 c-14 -5 -18 -43 -5 -43 4 0 12 11 19 25 11 25 9 28 -14 18z"/>
<path d="M290 971 c0 -10 30 -24 37 -17 3 3 2 9 -2 15 -8 13 -35 15 -35 2z"/>
<path d="M343 913 l-21 -62 20 -18 c21 -18 21 -18 8 6 -11 21 -10 23 4 18 9
-4 16 -1 17 6 1 7 2 19 3 27 0 8 12 17 25 20 l23 5 -25 14 c-14 8 -28 21 -29
30 -2 9 -13 -12 -25 -46z"/>
<path d="M127 954 c-15 -15 -7 -81 12 -98 18 -16 21 -16 50 -1 18 9 31 23 31
34 0 11 3 27 6 36 6 16 5 16 -24 1 -30 -15 -31 -15 -49 10 -10 14 -22 22 -26
18z"/>
<path d="M1374 938 c-19 -24 -22 -25 -48 -11 l-29 15 7 -33 c3 -19 18 -44 33
-56 l27 -22 23 21 c23 22 28 56 14 92 -7 18 -9 17 -27 -6z"/>
<path d="M1258 927 c-3 -19 -2 -25 4 -19 6 6 8 18 6 28 -3 14 -5 12 -10 -9z"/>
<path d="M260 911 c0 -6 4 -13 10 -16 6 -3 7 1 4 9 -7 18 -14 21 -14 7z"/>
<path d="M1125 860 c-3 -5 -1 -10 4 -10 6 0 11 5 11 10 0 6 -2 10 -4 10 -3 0
-8 -4 -11 -10z"/>
<path d="M110 807 c0 -52 3 -59 25 -69 22 -10 29 -8 50 12 17 16 25 34 25 57
0 36 -2 38 -32 22 -16 -9 -24 -7 -44 12 l-24 22 0 -56z"/>
<path d="M1389 834 c-13 -12 -20 -13 -42 -3 -34 15 -38 11 -31 -32 8 -47 44
-73 78 -57 23 10 26 17 26 60 0 51 -6 57 -31 32z"/>
<path d="M426 685 c-27 -47 -47 -87 -45 -89 2 -2 33 -9 68 -15 96 -19 160 -52
233 -120 36 -33 74 -61 85 -61 11 0 34 18 52 40 40 50 62 53 24 3 -15 -20 -22
-34 -15 -29 7 4 12 2 12 -6 0 -9 3 -9 10 2 9 13 10 13 10 0 0 -9 3 -11 8 -5 4
6 24 25 45 43 21 17 32 32 25 32 -9 0 -9 3 2 10 19 12 33 13 26 1 -3 -5 20 2
52 15 31 13 73 24 92 24 28 0 32 3 20 11 -11 8 -6 9 23 5 25 -3 37 -1 37 7 0
7 4 6 10 -3 8 -13 10 -12 10 3 0 10 5 15 10 12 6 -4 8 -10 5 -15 -3 -5 -1 -11
5 -15 19 -12 10 14 -23 69 -19 31 -37 53 -42 48 -5 -4 -5 -1 -1 5 11 19 -9 48
-48 71 l-35 21 35 -62 c50 -88 58 -106 51 -114 -4 -3 -8 -4 -9 -2 -2 2 -19 35
-38 73 -64 125 -64 126 -113 126 -62 0 -131 -23 -193 -64 l-54 -36 -45 35
c-53 40 -128 65 -194 65 l-46 0 -49 -85z m708 -114 c6 -9 -62 -26 -71 -17 -3
3 -16 -6 -30 -20 -13 -13 -27 -24 -31 -25 -42 -7 -71 -5 -65 4 3 6 1 7 -5 3
-6 -3 -9 -15 -7 -25 4 -22 -32 -60 -63 -66 -19 -3 -21 -1 -12 15 6 10 15 22
20 25 6 4 8 10 5 15 -3 5 12 21 34 35 69 46 210 81 225 56z"/>
<path d="M975 520 c-8 -13 5 -13 25 0 13 8 13 10 -2 10 -9 0 -20 -4 -23 -10z"/>
<path d="M895 490 c-3 -5 -3 -10 1 -10 4 0 -3 -12 -17 -27 l-24 -28 26 23 c14
12 26 29 26 37 0 18 -3 19 -12 5z"/>
<path d="M178 729 c-12 -19 -17 -20 -37 -10 -12 7 -24 11 -26 9 -2 -2 -1 -22
2 -45 4 -34 10 -44 33 -52 24 -8 32 -6 49 13 22 23 25 44 15 84 -8 28 -18 28
-36 1z"/>
<path d="M430 741 c0 -7 -4 -10 -9 -7 -5 3 -12 -1 -15 -10 -3 -8 -10 -13 -14
-10 -5 3 -19 -14 -32 -37 -12 -23 -32 -57 -43 -76 -12 -19 -16 -31 -9 -27 8 4
10 2 6 -7 -8 -21 12 -30 72 -33 29 -1 57 -4 61 -7 4 -2 26 -10 48 -17 59 -19
106 -45 141 -79 27 -26 74 -39 74 -21 0 7 -64 68 -94 91 -16 11 -18 11 -12 0
6 -9 5 -12 -5 -9 -8 3 -13 10 -12 15 1 5 -8 10 -20 11 -69 7 -70 7 -135 33
-13 5 -31 9 -41 9 -10 0 -26 10 -37 22 -10 12 -14 19 -8 15 11 -6 99 141 90
151 -3 3 -6 0 -6 -7z m-47 -56 c-3 -9 -8 -14 -10 -11 -3 3 -2 9 2 15 9 16 15
13 8 -4z m4 -141 c-3 -3 -12 -4 -19 -1 -8 3 -5 6 6 6 11 1 17 -2 13 -5z m173
-39 c17 -9 30 -18 30 -21 0 -4 -59 23 -69 32 -10 9 13 3 39 -11z m69 -30 c5 2
21 -10 37 -28 16 -18 19 -24 7 -13 -13 11 -23 16 -23 12 0 -3 -11 1 -25 10
-14 9 -22 21 -18 27 5 8 8 7 11 -1 2 -7 7 -10 11 -7z"/>
<path d="M1309 720 c-1 -16 -2 -33 -3 -38 -1 -4 9 -20 21 -35 19 -25 24 -26
47 -15 15 6 29 22 32 37 3 14 7 31 9 38 6 18 -6 23 -28 11 -17 -9 -24 -7 -38
11 -24 29 -39 26 -40 -9z"/>
<path d="M200 629 c-9 -16 -17 -19 -41 -14 -16 4 -29 3 -29 0 0 -16 56 -133
83 -175 16 -25 63 -78 104 -118 40 -41 70 -78 67 -84 -4 -6 -2 -8 3 -5 6 4 16
20 23 37 13 32 21 35 49 21 14 -8 17 -6 16 9 -1 10 -23 36 -51 58 -89 72 -158
166 -183 250 -13 46 -25 53 -41 21z"/>
<path d="M1295 635 c-37 -110 -118 -223 -206 -289 -20 -15 -39 -35 -42 -46 -4
-17 -2 -17 21 -7 18 8 26 9 29 1 2 -6 10 -19 17 -29 11 -16 17 -14 67 27 72
59 153 168 186 251 27 70 27 86 -4 69 -14 -9 -22 -6 -40 16 -20 26 -22 26 -28
7z"/>
<path d="M648 350 c6 -44 22 -47 22 -6 0 23 -5 36 -13 36 -9 0 -12 -10 -9 -30z"/>
<path d="M705 370 c-7 -11 4 -60 14 -60 11 0 32 50 26 61 -8 12 -32 12 -40 -1z"/>
<path d="M771 363 c0 -10 4 -27 8 -38 8 -19 8 -19 19 2 18 33 15 53 -8 53 -13
0 -20 -6 -19 -17z m29 -3 c0 -5 -4 -10 -10 -10 -5 0 -10 5 -10 10 0 6 5 10 10
10 6 0 10 -4 10 -10z"/>
<path d="M848 345 c2 -19 8 -35 13 -35 5 0 9 16 9 35 0 22 -5 35 -13 35 -9 0
-12 -11 -9 -35z"/>
<path d="M506 311 c-4 -7 -5 -15 -2 -18 9 -9 19 4 14 18 -4 11 -6 11 -12 0z"/>
<path d="M990 300 c0 -5 5 -10 10 -10 6 0 10 5 10 10 0 6 -4 10 -10 10 -5 0
-10 -4 -10 -10z"/>
<path d="M535 291 c-3 -5 -1 -12 5 -16 5 -3 10 1 10 9 0 18 -6 21 -15 7z"/>
<path d="M570 276 c0 -9 5 -16 10 -16 6 0 10 4 10 9 0 6 -4 13 -10 16 -5 3
-10 -1 -10 -9z"/>
<path d="M606 271 c-4 -7 -5 -15 -2 -18 9 -9 19 4 14 18 -4 11 -6 11 -12 0z"/>
<path d="M921 264 c0 -11 3 -14 6 -6 3 7 2 16 -1 19 -3 4 -6 -2 -5 -13z"/>
<path d="M636 261 c-4 -7 -5 -15 -2 -18 9 -9 19 4 14 18 -4 11 -6 11 -12 0z"/>
<path d="M880 261 c0 -6 5 -13 10 -16 6 -3 10 1 10 9 0 9 -4 16 -10 16 -5 0
-10 -4 -10 -9z"/>
<path d="M456 244 c-4 -11 1 -18 14 -21 11 -3 17 -9 14 -14 -9 -15 6 -10 23 7
14 14 14 16 -3 29 -25 19 -40 19 -48 -1z"/>
<path d="M667 254 c-8 -8 1 -24 14 -24 5 0 9 7 9 15 0 15 -12 20 -23 9z"/>
<path d="M850 251 c0 -6 5 -13 10 -16 6 -3 10 1 10 9 0 9 -4 16 -10 16 -5 0
-10 -4 -10 -9z"/>
<path d="M1025 245 c-20 -16 -20 -16 3 -10 18 5 22 2 22 -15 0 -12 -4 -19 -9
-15 -6 3 -9 -4 -8 -15 2 -24 4 -24 37 -5 21 12 22 14 6 15 -11 0 -16 5 -13 14
3 8 0 21 -6 30 -11 15 -14 15 -32 1z"/>
<path d="M731 234 c0 -11 3 -14 6 -6 3 7 2 16 -1 19 -3 4 -6 -2 -5 -13z"/>
<path d="M760 240 c0 -5 7 -10 16 -10 8 0 12 5 9 10 -3 6 -10 10 -16 10 -5 0
-9 -4 -9 -10z"/>
<path d="M825 240 c3 -5 8 -10 11 -10 2 0 4 5 4 10 0 6 -5 10 -11 10 -5 0 -7
-4 -4 -10z"/>
<path d="M370 211 c0 -6 4 -13 10 -16 6 -3 7 1 4 9 -7 18 -14 21 -14 7z"/>
<path d="M440 205 c0 -8 9 -19 20 -25 11 -6 20 -8 20 -5 0 3 -9 14 -20 25 -15
15 -20 16 -20 5z"/>
<path d="M838 213 c7 -3 16 -2 19 1 4 3 -2 6 -13 5 -11 0 -14 -3 -6 -6z"/>
<path d="M1136 203 c-6 -14 -5 -15 5 -6 7 7 10 15 7 18 -3 3 -9 -2 -12 -12z"/>
<path d="M592 190 c-14 -23 -16 -33 -3 -26 15 10 43 -6 37 -20 -3 -8 -1 -14 4
-14 6 0 9 17 9 38 -1 20 -4 28 -6 18 -5 -19 -6 -19 -17 2 -11 21 -12 21 -24 2z"/>
<path d="M877 194 c-12 -12 16 -52 40 -57 21 -4 24 -2 19 17 -3 11 -6 27 -6
34 0 12 -41 17 -53 6z"/>
<path d="M726 183 c-12 -12 -6 -43 9 -43 8 0 15 -7 15 -15 0 -8 9 -15 21 -15
17 0 20 5 17 36 -3 32 -7 37 -30 40 -14 1 -29 0 -32 -3z m21 -25 c-3 -8 -6 -5
-6 6 -1 11 2 17 5 13 3 -3 4 -12 1 -19z"/>
<path d="M608 103 c7 -3 16 -2 19 1 4 3 -2 6 -13 5 -11 0 -14 -3 -6 -6z"/>
<path d="M898 103 c7 -3 16 -2 19 1 4 3 -2 6 -13 5 -11 0 -14 -3 -6 -6z"/>
<path d="M658 93 c6 -2 18 -2 25 0 6 3 1 5 -13 5 -14 0 -19 -2 -12 -5z"/>
<path d="M838 93 c6 -2 18 -2 25 0 6 3 1 5 -13 5 -14 0 -19 -2 -12 -5z"/>
</g>
</svg>
