<svg width="40" height="19" viewBox="0 0 71 19" fill="none" xmlns="http://www.w3.org/2000/svg">
<path d="M0.318182 3.19602L0.761364 0.545454H14.6875L14.2443 3.19602H8.84943L6.39489 18H3.25852L5.71307 3.19602H0.318182ZM30.7124 9.47727C30.4055 11.3295 29.8004 12.9091 28.897 14.2159C27.9993 15.517 26.9027 16.5142 25.6072 17.2074C24.3175 17.8949 22.9283 18.2386 21.4396 18.2386C19.8771 18.2386 18.5362 17.875 17.4169 17.1477C16.2976 16.4148 15.4908 15.3665 14.9964 14.0028C14.5078 12.6392 14.4226 11.0028 14.7408 9.09375C15.0476 7.24716 15.6499 5.66761 16.5476 4.35511C17.4453 3.04261 18.5447 2.03977 19.8459 1.34659C21.147 0.653409 22.5504 0.306818 24.0561 0.306818C25.6072 0.306818 26.9368 0.673295 28.0447 1.40625C29.1584 2.13352 29.9595 3.18182 30.4482 4.55114C30.9425 5.92045 31.0305 7.5625 30.7124 9.47727ZM27.6016 9.09375C27.8118 7.80398 27.7919 6.71591 27.5419 5.82954C27.2976 4.94318 26.8629 4.27557 26.2379 3.8267C25.6129 3.37216 24.843 3.14489 23.9283 3.14489C22.9396 3.14489 22.0249 3.39205 21.1839 3.88636C20.3487 4.375 19.6385 5.09091 19.0533 6.03409C18.4737 6.97727 18.076 8.125 17.8601 9.47727C17.6328 10.7727 17.647 11.8608 17.9027 12.7415C18.1584 13.6222 18.6016 14.2869 19.2322 14.7358C19.8629 15.179 20.6328 15.4006 21.5419 15.4006C22.5249 15.4006 23.4339 15.1562 24.2692 14.6676C25.1044 14.179 25.8118 13.4659 26.3913 12.5284C26.9766 11.5909 27.38 10.446 27.6016 9.09375ZM32.2869 18L35.1847 0.545454H46.5369L46.0938 3.19602H37.9034L37.1193 7.93466H44.7216L44.2784 10.5852H36.6761L35.892 15.3494H44.1506L43.7074 18H32.2869ZM52.9247 0.545454L50.027 18H46.8651L49.7628 0.545454H52.9247ZM70.2919 6.43466H67.1555C67.1555 5.91193 67.0703 5.44886 66.8999 5.04545C66.7294 4.63636 66.4908 4.28977 66.1839 4.00568C65.8771 3.72159 65.5135 3.50852 65.093 3.36648C64.6726 3.21875 64.2067 3.14489 63.6953 3.14489C62.718 3.14489 61.8089 3.39205 60.968 3.88636C60.1271 4.38068 59.4141 5.09943 58.8288 6.04261C58.2436 6.98011 57.8374 8.11932 57.6101 9.46023C57.3999 10.767 57.4197 11.8608 57.6697 12.7415C57.9254 13.6222 58.3686 14.2869 58.9993 14.7358C59.63 15.179 60.397 15.4006 61.3004 15.4006C61.8516 15.4006 62.38 15.3324 62.8857 15.196C63.3913 15.054 63.8572 14.8466 64.2834 14.5739C64.7152 14.2955 65.093 13.9574 65.4169 13.5597C65.7464 13.1619 66.0021 12.7102 66.1839 12.2045H69.3629C69.1016 13.0341 68.718 13.8153 68.2124 14.5483C67.7067 15.2756 67.0987 15.9176 66.3885 16.4744C65.6783 17.0256 64.8828 17.4574 64.0021 17.7699C63.1214 18.0824 62.1726 18.2386 61.1555 18.2386C59.593 18.2386 58.255 17.875 57.1413 17.1477C56.0334 16.4148 55.2379 15.3665 54.755 14.0028C54.272 12.6335 54.1868 10.9943 54.4993 9.08523C54.8118 7.22727 55.4141 5.64489 56.3061 4.33807C57.2038 3.03125 58.2976 2.03409 59.5874 1.34659C60.8828 0.653409 62.2777 0.306818 63.772 0.306818C64.7607 0.306818 65.6584 0.443181 66.4652 0.715908C67.2777 0.988636 67.9737 1.3892 68.5533 1.91761C69.1328 2.44034 69.5732 3.08239 69.8743 3.84375C70.1811 4.59943 70.3203 5.46307 70.2919 6.43466Z" fill="#191594"/>
</svg>
